<svg width="137" height="30" viewBox="0 0 137 30" fill="none" xmlns="http://www.w3.org/2000/svg">
<path d="M9.31396 25.1626C8.66455 23.5562 8.20882 22.0181 7.94678 20.5483C7.68473 19.0786 7.55371 17.6886 7.55371 16.3784C7.55371 16.1847 7.55371 15.991 7.55371 15.7974C7.55371 15.6037 7.5651 15.41 7.58789 15.2163C6.83594 15.1252 6.26058 14.9714 5.86182 14.7549C5.47445 14.527 5.28076 14.2479 5.28076 13.9175C5.28076 13.5871 5.50863 13.3136 5.96436 13.0972C6.43148 12.8807 7.0695 12.7269 7.87842 12.6357C8.06071 11.5192 8.29997 10.5109 8.59619 9.61084C8.89242 8.71077 9.17725 7.94743 9.45068 7.3208C9.73551 6.68278 9.98047 6.19287 10.1855 5.85107C10.3906 5.49788 10.4932 5.3099 10.4932 5.28711L11.1255 5.49219C11.0799 5.62891 10.9945 5.87956 10.8691 6.24414C10.7552 6.59733 10.6185 7.07015 10.459 7.6626C10.3109 8.24365 10.1571 8.94434 9.99756 9.76465C9.83805 10.5736 9.70133 11.4964 9.5874 12.5332H9.62158C10.4875 12.5332 11.342 12.5788 12.1851 12.6699C13.0282 12.7497 13.8428 12.8864 14.6289 13.0801C15.1644 12.7839 15.6657 12.4478 16.1328 12.0718C16.5999 11.6844 17.0044 11.2629 17.3462 10.8071C17.6994 10.34 17.9728 9.8387 18.1665 9.30322C18.3716 8.75635 18.4741 8.17529 18.4741 7.56006C18.4741 6.70557 18.326 5.96501 18.0298 5.33838C17.7336 4.71175 17.3519 4.17627 16.8848 3.73193C16.429 3.2762 15.9106 2.90592 15.3296 2.62109C14.7485 2.33626 14.1732 2.1141 13.6035 1.95459C13.0452 1.79508 12.5212 1.68685 12.0312 1.62988C11.5413 1.56152 11.1483 1.52734 10.8521 1.52734C9.74691 1.52734 8.73861 1.62988 7.82715 1.83496C6.91569 2.02865 6.09538 2.2793 5.36621 2.58691C4.64844 2.88314 4.02181 3.20785 3.48633 3.56104C2.95085 3.90283 2.50651 4.22754 2.15332 4.53516C1.80013 4.83138 1.53239 5.08203 1.3501 5.28711C1.1792 5.48079 1.08805 5.58333 1.07666 5.59473L0.563965 5.16748C0.586751 5.1333 0.694987 5.00228 0.888672 4.77441C1.09375 4.54655 1.38428 4.27881 1.76025 3.97119C2.14762 3.65218 2.62044 3.31038 3.17871 2.9458C3.73698 2.58122 4.38639 2.25081 5.12695 1.95459C5.86751 1.64697 6.69352 1.39062 7.60498 1.18555C8.52783 0.980469 9.54183 0.87793 10.647 0.87793C11.3875 0.87793 12.1452 0.929199 12.9199 1.03174C13.7061 1.12288 14.4637 1.27669 15.1929 1.49316C15.9334 1.70964 16.6341 1.98877 17.2949 2.33057C17.9557 2.67236 18.5311 3.08822 19.021 3.57812C19.5109 4.06803 19.8983 4.6377 20.1831 5.28711C20.4679 5.93652 20.6104 6.67139 20.6104 7.4917C20.6104 8.03857 20.5021 8.58545 20.2856 9.13232C20.0692 9.6792 19.7616 10.2147 19.3628 10.7388C18.964 11.2629 18.4855 11.7585 17.9272 12.2256C17.369 12.6927 16.748 13.12 16.0645 13.5073C16.8278 13.7808 17.5342 14.1169 18.1836 14.5156C18.833 14.903 19.3913 15.3644 19.8584 15.8999C20.3255 16.424 20.6901 17.0221 20.9521 17.6943C21.2142 18.3665 21.3452 19.1185 21.3452 19.9502C21.3452 20.8389 21.1857 21.682 20.8667 22.4795C20.5477 23.277 20.0977 24.0119 19.5166 24.6841C18.9469 25.3563 18.2633 25.9601 17.4658 26.4956C16.6683 27.0425 15.791 27.5039 14.834 27.8799C13.877 28.2559 12.8516 28.5407 11.7578 28.7344C10.6755 28.9395 9.55892 29.042 8.4082 29.042C6.96126 29.042 5.70801 28.8711 4.64844 28.5293C3.60026 28.1989 2.72868 27.7546 2.03369 27.1963C1.3501 26.638 0.837402 26 0.495605 25.2822C0.165202 24.5531 0 23.8011 0 23.0264C0 22.5251 0.074056 22.0522 0.222168 21.6079C0.381673 21.1522 0.598145 20.7363 0.871582 20.3604C1.15641 19.973 1.49821 19.6369 1.89697 19.3521C2.29574 19.0558 2.74577 18.8223 3.24707 18.6514L3.46924 19.1812C3.0363 19.3407 2.67171 19.5799 2.37549 19.8989C2.09066 20.2179 1.8571 20.5654 1.6748 20.9414C1.50391 21.3174 1.37858 21.6991 1.29883 22.0864C1.23047 22.4738 1.19629 22.8099 1.19629 23.0947C1.19629 23.4365 1.24186 23.8068 1.33301 24.2056C1.42415 24.6043 1.57796 24.9974 1.79443 25.3848C2.0109 25.7721 2.29574 26.1481 2.64893 26.5127C3.01351 26.8773 3.46354 27.1963 3.99902 27.4697C4.53451 27.7432 5.16683 27.9596 5.896 28.1191C6.62516 28.29 7.46257 28.3755 8.4082 28.3755C9.13737 28.3755 9.91781 28.2957 10.7495 28.1362C11.5812 27.9881 12.4015 27.7603 13.2104 27.4526C14.0194 27.145 14.7941 26.7633 15.5347 26.3076C16.2752 25.8519 16.9303 25.3164 17.5 24.7012C18.0697 24.0859 18.5197 23.3966 18.8501 22.6333C19.1919 21.87 19.3628 21.0326 19.3628 20.1211C19.3628 19.3008 19.2489 18.5716 19.021 17.9336C18.7931 17.2956 18.4741 16.7316 18.064 16.2417C17.6652 15.7518 17.1981 15.3359 16.6626 14.9941C16.1271 14.641 15.5518 14.3447 14.9365 14.1055C14.0934 14.4701 13.2048 14.7606 12.2705 14.9771C11.3477 15.1821 10.3849 15.2847 9.38232 15.2847C9.35954 15.6834 9.34245 16.0993 9.33105 16.5322C9.31966 16.9538 9.31396 17.3924 9.31396 17.8481C9.31396 18.9419 9.37093 20.0869 9.48486 21.2832C9.5988 22.4795 9.764 23.7384 9.98047 25.0601L9.31396 25.1626ZM9.4165 14.584C10.0203 14.5612 10.6698 14.4757 11.3647 14.3276C12.0711 14.1681 12.7718 13.9403 13.4668 13.644C12.8174 13.4845 12.1623 13.3706 11.5015 13.3022C10.8521 13.2225 10.2254 13.1826 9.62158 13.1826H9.51904C9.49626 13.4105 9.47917 13.644 9.46777 13.8833C9.45638 14.1112 9.43929 14.3447 9.4165 14.584ZM5.98145 13.9517C5.98145 14.0314 6.10677 14.1283 6.35742 14.2422C6.60807 14.3561 7.02962 14.4473 7.62207 14.5156C7.64486 14.3105 7.66764 14.1055 7.69043 13.9004C7.71322 13.6953 7.7417 13.4959 7.77588 13.3022C7.12646 13.3934 6.66504 13.5073 6.3916 13.644C6.11816 13.7808 5.98145 13.8833 5.98145 13.9517ZM28.4204 25.7607C27.8394 25.7607 27.2811 25.6582 26.7456 25.4531C26.2101 25.248 25.7373 24.9404 25.3271 24.5303C24.9284 24.1087 24.6094 23.5846 24.3701 22.958C24.1309 22.3314 24.0112 21.5965 24.0112 20.7534C24.0112 19.728 24.1593 18.8166 24.4556 18.019C24.7518 17.2101 25.1278 16.5322 25.5835 15.9854C26.0506 15.4271 26.569 15.0055 27.1387 14.7207C27.7083 14.4245 28.2666 14.2764 28.8135 14.2764C29.5199 14.2764 30.0781 14.5099 30.4883 14.9771C30.9098 15.4442 31.1206 16.048 31.1206 16.7886C31.1206 17.4266 31.001 18.0076 30.7617 18.5317C30.5225 19.0444 30.2035 19.4888 29.8047 19.8647C29.4173 20.2293 28.9673 20.5142 28.4546 20.7192C27.9533 20.9243 27.4292 21.0269 26.8823 21.0269C26.6203 21.0269 26.3696 21.0155 26.1304 20.9927C25.9025 20.9585 25.6974 20.9243 25.5151 20.8901C25.5835 21.5965 25.7202 22.2061 25.9253 22.7188C26.1304 23.2314 26.3867 23.653 26.6943 23.9834C27.002 24.3138 27.3438 24.5588 27.7197 24.7183C28.1071 24.8778 28.5059 24.9575 28.916 24.9575C29.4287 24.9575 29.9015 24.8322 30.3345 24.5815C30.7674 24.3309 31.1662 24.0062 31.5308 23.6074C31.8953 23.1973 32.2257 22.7301 32.522 22.2061C32.8296 21.682 33.103 21.1522 33.3423 20.6167C33.5815 20.0698 33.7923 19.54 33.9746 19.0273C34.1683 18.5033 34.3392 18.0418 34.4873 17.6431L35.1538 17.814C35.0057 18.1899 34.8291 18.6457 34.624 19.1812C34.4303 19.7166 34.2025 20.2806 33.9404 20.873C33.6784 21.4541 33.3708 22.0409 33.0176 22.6333C32.6644 23.2144 32.2656 23.7384 31.8213 24.2056C31.377 24.6613 30.87 25.0373 30.3003 25.3335C29.742 25.6183 29.1154 25.7607 28.4204 25.7607ZM28.8477 14.9429C28.4261 14.9429 28.0103 15.0796 27.6001 15.353C27.2013 15.6151 26.8424 15.9797 26.5234 16.4468C26.2044 16.9139 25.9424 17.4665 25.7373 18.1045C25.5436 18.7425 25.4468 19.4261 25.4468 20.1553C25.5949 20.2122 25.8 20.2635 26.062 20.3091C26.3354 20.3433 26.6659 20.3604 27.0532 20.3604C27.4634 20.3604 27.8678 20.2749 28.2666 20.104C28.6768 19.9217 29.0413 19.6768 29.3604 19.3691C29.6908 19.0501 29.9528 18.6742 30.1465 18.2412C30.3516 17.8083 30.4541 17.3354 30.4541 16.8228C30.4541 16.5721 30.4199 16.3328 30.3516 16.105C30.2832 15.8771 30.1807 15.6777 30.0439 15.5068C29.9072 15.3359 29.7363 15.1992 29.5312 15.0967C29.3376 14.9941 29.1097 14.9429 28.8477 14.9429ZM47.6465 17.814C47.1794 19.0786 46.7521 20.1382 46.3647 20.9927C45.9888 21.8472 45.6185 22.5365 45.2539 23.0605C44.9007 23.5846 44.5475 23.9606 44.1943 24.1885C43.8411 24.4163 43.4538 24.5303 43.0322 24.5303C42.5195 24.5303 42.0809 24.3537 41.7163 24.0005C41.3517 23.6359 41.1239 23.0776 41.0327 22.3257C40.6681 23.1118 40.1953 23.7555 39.6143 24.2568C39.0332 24.7467 38.304 24.9917 37.4268 24.9917C36.9596 24.9917 36.5096 24.9062 36.0767 24.7354C35.6551 24.5645 35.2791 24.3024 34.9487 23.9492C34.6183 23.5846 34.3506 23.1289 34.1455 22.582C33.9518 22.0352 33.855 21.3914 33.855 20.6509C33.855 19.8989 33.9461 19.1925 34.1284 18.5317C34.3221 17.8709 34.5728 17.2671 34.8804 16.7202C35.188 16.1619 35.5412 15.6663 35.9399 15.2334C36.3501 14.8005 36.7716 14.4359 37.2046 14.1396C37.6375 13.8434 38.0705 13.6156 38.5034 13.4561C38.9364 13.2965 39.3351 13.2168 39.6997 13.2168C40.0187 13.2168 40.3263 13.2567 40.6226 13.3364C40.9188 13.4162 41.1808 13.5472 41.4087 13.7295C41.6479 13.9004 41.8359 14.134 41.9727 14.4302C42.1208 14.7264 42.1948 15.0967 42.1948 15.541C42.1948 16.0651 42.0923 16.5208 41.8872 16.9082C41.6935 17.2956 41.4543 17.6203 41.1694 17.8823C40.896 18.1444 40.6112 18.3551 40.3149 18.5146C40.0301 18.6742 39.8022 18.7881 39.6313 18.8564L39.4263 18.1899C39.4604 18.1899 39.5858 18.1444 39.8022 18.0532C40.0301 17.9621 40.2637 17.814 40.5029 17.6089C40.7536 17.3924 40.9814 17.119 41.1865 16.7886C41.3916 16.4582 41.4941 16.0537 41.4941 15.5752C41.4941 15.0283 41.3403 14.6125 41.0327 14.3276C40.7251 14.0314 40.332 13.8833 39.8535 13.8833C39.4889 13.8833 39.0617 14.0143 38.5718 14.2764C38.0819 14.5384 37.609 14.9486 37.1533 15.5068C36.709 16.0651 36.3273 16.7715 36.0083 17.626C35.7007 18.4805 35.5469 19.5002 35.5469 20.6851C35.5469 21.8586 35.752 22.7529 36.1621 23.3682C36.5837 23.9834 37.1476 24.291 37.854 24.291C38.2072 24.291 38.5433 24.1942 38.8623 24.0005C39.1927 23.7954 39.4946 23.5277 39.7681 23.1973C40.0415 22.8669 40.2865 22.4852 40.5029 22.0522C40.7194 21.6079 40.9074 21.1522 41.0669 20.6851C41.0669 20.3205 41.1068 19.8932 41.1865 19.4033C41.2777 18.902 41.4144 18.395 41.5967 17.8823L42.6392 18.2241C42.5822 18.3722 42.5252 18.5659 42.4683 18.8052C42.4113 19.0444 42.3543 19.3065 42.2974 19.5913C42.2518 19.8761 42.2119 20.1724 42.1777 20.48C42.1436 20.7762 42.1265 21.0667 42.1265 21.3516C42.1265 22.2402 42.2119 22.8555 42.3828 23.1973C42.5651 23.5277 42.8727 23.6929 43.3057 23.6929C43.5563 23.6929 43.8013 23.6017 44.0405 23.4194C44.2912 23.2371 44.5589 22.9181 44.8438 22.4624C45.1286 22.0067 45.4419 21.3914 45.7837 20.6167C46.1255 19.8306 46.5243 18.8394 46.98 17.6431L47.6465 17.814ZM46.9971 17.6431C47.168 17.1987 47.3503 16.7772 47.5439 16.3784C47.749 15.9683 47.9655 15.6094 48.1934 15.3018C48.4212 14.9941 48.6662 14.7492 48.9282 14.5669C49.2017 14.3732 49.5036 14.2764 49.834 14.2764C49.9935 14.2764 50.1758 14.3105 50.3809 14.3789C50.5859 14.4473 50.7796 14.584 50.9619 14.7891C51.1556 14.9941 51.3151 15.2904 51.4404 15.6777C51.5658 16.0651 51.6284 16.5778 51.6284 17.2158C51.6284 17.5462 51.6113 17.9108 51.5771 18.3096C51.543 18.7083 51.5088 19.1014 51.4746 19.4888C51.8278 18.7368 52.1753 18.1045 52.5171 17.5918C52.8703 17.0677 53.2121 16.6519 53.5425 16.3442C53.8843 16.0252 54.2204 15.7974 54.5508 15.6606C54.8812 15.5125 55.2116 15.4385 55.542 15.4385C55.6901 15.4385 55.861 15.4727 56.0547 15.541C56.2598 15.6094 56.4478 15.729 56.6187 15.8999C56.8009 16.0708 56.9491 16.3044 57.063 16.6006C57.1883 16.8968 57.251 17.2785 57.251 17.7456C57.251 18.1216 57.2225 18.4976 57.1655 18.8735C57.1086 19.2495 57.0459 19.6141 56.9775 19.9673C56.9092 20.3205 56.8465 20.6566 56.7896 20.9756C56.7326 21.2832 56.7041 21.5566 56.7041 21.7959C56.7041 22.3656 56.8066 22.8042 57.0117 23.1118C57.2168 23.408 57.5301 23.5562 57.9517 23.5562C58.2935 23.5562 58.6182 23.4308 58.9258 23.1802C59.2334 22.9181 59.5182 22.5877 59.7803 22.189C60.0537 21.7902 60.2987 21.3516 60.5151 20.873C60.743 20.3945 60.9367 19.9388 61.0962 19.5059C61.2671 19.0615 61.4095 18.6742 61.5234 18.3438C61.6374 18.002 61.7171 17.7684 61.7627 17.6431L62.4292 17.814C62.2697 18.2127 62.0988 18.6571 61.9165 19.147C61.7456 19.6255 61.5519 20.1097 61.3354 20.5996C61.119 21.0895 60.8854 21.568 60.6348 22.0352C60.3841 22.4909 60.105 22.8953 59.7974 23.2485C59.4897 23.6017 59.1536 23.8866 58.7891 24.103C58.4359 24.3195 58.0428 24.4277 57.6099 24.4277C57.2453 24.4277 56.9263 24.3594 56.6528 24.2227C56.3908 24.0745 56.1686 23.8809 55.9863 23.6416C55.804 23.4023 55.6673 23.1175 55.5762 22.7871C55.485 22.4567 55.4395 22.1035 55.4395 21.7275C55.4395 21.306 55.4736 20.873 55.542 20.4287C55.6217 19.9844 55.7015 19.5571 55.7812 19.147C55.8724 18.7368 55.9521 18.3608 56.0205 18.019C56.1003 17.6659 56.1401 17.3753 56.1401 17.1475C56.1401 16.7943 56.0718 16.5322 55.9351 16.3613C55.7983 16.179 55.6104 16.0879 55.3711 16.0879C55.0407 16.0879 54.716 16.2075 54.397 16.4468C54.0894 16.686 53.7874 17.005 53.4912 17.4038C53.2064 17.8026 52.9329 18.2583 52.6709 18.771C52.4089 19.2837 52.1639 19.8135 51.936 20.3604C51.7196 20.8958 51.5145 21.4313 51.3208 21.9668C51.1385 22.5023 50.979 22.9865 50.8423 23.4194C50.7056 23.8524 50.5859 24.2227 50.4834 24.5303C50.3923 24.8265 50.3296 25.0145 50.2954 25.0942L49.3042 24.9233C49.4409 24.2511 49.5662 23.5448 49.6802 22.8042C49.7941 22.0522 49.891 21.3174 49.9707 20.5996C50.0618 19.8704 50.1302 19.1755 50.1758 18.5146C50.2327 17.8538 50.2612 17.2671 50.2612 16.7544C50.2612 16.0594 50.2157 15.5923 50.1245 15.353C50.0334 15.1024 49.8682 14.9771 49.6289 14.9771C49.4238 14.9771 49.2301 15.0568 49.0479 15.2163C48.8656 15.3644 48.6947 15.5695 48.5352 15.8315C48.387 16.0822 48.2389 16.3784 48.0908 16.7202C47.9427 17.062 47.8003 17.4266 47.6636 17.814L46.9971 17.6431ZM72.9224 8.26074C72.9224 8.89876 73.0534 9.47412 73.3154 9.98682C73.5775 10.4881 73.9307 10.9495 74.375 11.3711C74.8193 11.7812 75.3377 12.1629 75.9302 12.5161C76.534 12.8579 77.172 13.194 77.8442 13.5244C78.5164 13.8434 79.2057 14.1624 79.9121 14.4814C80.6299 14.7891 81.3249 15.1195 81.9971 15.4727C82.6693 15.8145 83.3016 16.1904 83.894 16.6006C84.4979 16.9993 85.022 17.4494 85.4663 17.9507C85.9106 18.4406 86.2638 18.9932 86.5259 19.6084C86.7879 20.2122 86.9189 20.8958 86.9189 21.6592C86.9189 23.0492 86.6569 24.2568 86.1328 25.2822C85.6087 26.2962 84.908 27.1336 84.0308 27.7944C83.1535 28.4666 82.1338 28.9622 80.9717 29.2812C79.8096 29.6117 78.5962 29.7769 77.3315 29.7769C76.215 29.7769 75.1611 29.6287 74.1699 29.3325C73.1787 29.0477 72.3071 28.6432 71.5552 28.1191C70.8032 27.6064 70.2051 26.9855 69.7607 26.2563C69.3278 25.5386 69.1113 24.7524 69.1113 23.8979C69.1113 23.146 69.2253 22.508 69.4531 21.9839C69.6924 21.4484 69.9487 21.0098 70.2222 20.668C70.507 20.3262 70.7747 20.0755 71.0254 19.916C71.276 19.7565 71.4185 19.6711 71.4526 19.6597L71.8286 20.4629C71.8058 20.4743 71.6976 20.5483 71.5039 20.6851C71.3102 20.8104 71.0994 21.0098 70.8716 21.2832C70.6551 21.5566 70.45 21.9098 70.2563 22.3428C70.0741 22.7643 69.9829 23.2827 69.9829 23.8979C69.9829 24.5132 70.0968 25.0658 70.3247 25.5557C70.564 26.0342 70.8773 26.4557 71.2646 26.8203C71.6634 27.1849 72.1134 27.4982 72.6147 27.7603C73.1274 28.0223 73.6572 28.2331 74.2041 28.3926C74.751 28.5635 75.2979 28.6831 75.8447 28.7515C76.3916 28.8312 76.8986 28.8711 77.3657 28.8711C78.5734 28.8711 79.6672 28.7173 80.647 28.4097C81.6268 28.1134 82.4585 27.6976 83.1421 27.1621C83.8371 26.638 84.3726 26.0285 84.7485 25.3335C85.1245 24.6271 85.3125 23.8695 85.3125 23.0605C85.3125 22.1491 85.1188 21.363 84.7314 20.7021C84.3441 20.0413 83.8314 19.4603 83.1934 18.959C82.5553 18.4463 81.8262 17.9906 81.0059 17.5918C80.1969 17.1816 79.3652 16.7829 78.5107 16.3955C77.6676 16.0081 76.8359 15.6037 76.0156 15.1821C75.2067 14.7492 74.4832 14.2536 73.8452 13.6953C73.2072 13.137 72.6945 12.4933 72.3071 11.7642C71.9198 11.0236 71.7261 10.1463 71.7261 9.13232C71.7261 8.00439 71.9141 6.97331 72.29 6.03906C72.6774 5.10482 73.2015 4.3016 73.8623 3.62939C74.5345 2.9458 75.3206 2.42171 76.2207 2.05713C77.1208 1.68115 78.0949 1.49316 79.1431 1.49316C80.2026 1.49316 81.1312 1.61849 81.9287 1.86914C82.7262 2.1084 83.3927 2.4502 83.9282 2.89453C84.4751 3.32747 84.8796 3.85156 85.1416 4.4668C85.415 5.08203 85.5518 5.75993 85.5518 6.50049C85.5518 7.10433 85.4777 7.69678 85.3296 8.27783C85.1929 8.84749 85.0391 9.36019 84.8682 9.81592C84.6973 10.2716 84.5378 10.6419 84.3896 10.9268C84.2415 11.2116 84.1618 11.3711 84.1504 11.4053L83.3813 10.978C83.3813 10.9666 83.444 10.8299 83.5693 10.5679C83.7061 10.3058 83.8542 9.96403 84.0137 9.54248C84.1732 9.12093 84.3156 8.64811 84.4409 8.12402C84.5776 7.58854 84.646 7.04736 84.646 6.50049C84.646 5.88525 84.5321 5.32699 84.3042 4.82568C84.0877 4.31299 83.7516 3.88005 83.2959 3.52686C82.8402 3.17367 82.2648 2.90023 81.5698 2.70654C80.8748 2.51286 80.0545 2.41602 79.1089 2.41602C78.2316 2.41602 77.417 2.56413 76.665 2.86035C75.9131 3.14518 75.258 3.54964 74.6997 4.07373C74.1528 4.59782 73.7199 5.21875 73.4009 5.93652C73.0819 6.6429 72.9224 7.41764 72.9224 8.26074ZM94.1992 17.1133C94.1992 16.4297 94.3587 15.8372 94.6777 15.3359C95.0081 14.8346 95.4297 14.3504 95.9424 13.8833C95.7829 13.7808 95.612 13.7067 95.4297 13.6611C95.2474 13.6042 95.0708 13.5757 94.8999 13.5757C94.5239 13.5757 94.1195 13.6725 93.6865 13.8662C93.265 14.0485 92.8719 14.3618 92.5073 14.8062C92.1541 15.2505 91.8579 15.8486 91.6187 16.6006C91.3794 17.3411 91.2598 18.2697 91.2598 19.3862C91.2598 20.3091 91.368 21.1009 91.5845 21.7617C91.8123 22.4225 92.12 22.9694 92.5073 23.4023C92.8947 23.8239 93.3447 24.1372 93.8574 24.3423C94.3701 24.536 94.917 24.6328 95.498 24.6328C96.193 24.6328 96.814 24.4562 97.3608 24.103C97.9077 23.7384 98.409 23.2428 98.8647 22.6162C99.3205 21.9782 99.742 21.2376 100.129 20.3945C100.528 19.54 100.921 18.6229 101.309 17.6431L101.958 17.814C101.73 18.3722 101.491 18.9476 101.24 19.54C101.001 20.1325 100.733 20.7192 100.437 21.3003C100.152 21.87 99.8332 22.4111 99.48 22.9238C99.1382 23.4365 98.7394 23.8866 98.2837 24.2739C97.8394 24.6613 97.3381 24.9689 96.7798 25.1968C96.2215 25.4246 95.5949 25.5386 94.8999 25.5386C94.1935 25.5386 93.5213 25.4246 92.8833 25.1968C92.2567 24.9575 91.7041 24.6043 91.2256 24.1372C90.7471 23.6587 90.3654 23.0605 90.0806 22.3428C89.7957 21.625 89.6533 20.7819 89.6533 19.8135C89.6533 18.8337 89.8128 17.9222 90.1318 17.0791C90.4622 16.236 90.8781 15.5068 91.3794 14.8916C91.8807 14.2764 92.4333 13.7922 93.0371 13.439C93.641 13.0858 94.2163 12.9092 94.7632 12.9092C95.4012 12.9092 95.9709 13.0744 96.4722 13.4048C96.5633 13.3364 96.6488 13.2681 96.7285 13.1997C96.8197 13.12 96.9108 13.0345 97.002 12.9434L97.3779 13.4731C97.3096 13.5415 97.2412 13.6042 97.1729 13.6611C97.1045 13.7181 97.0361 13.7808 96.9678 13.8491C97.1729 14.0998 97.3381 14.396 97.4634 14.7378C97.6001 15.0796 97.6685 15.4613 97.6685 15.8828C97.6685 16.3499 97.6115 16.7658 97.4976 17.1304C97.395 17.4836 97.2469 17.7855 97.0532 18.0361C96.8709 18.2868 96.6602 18.4748 96.4209 18.6001C96.1816 18.7254 95.931 18.7881 95.6689 18.7881C95.5322 18.7881 95.3784 18.7596 95.2075 18.7026C95.0366 18.6343 94.8771 18.5374 94.729 18.4121C94.5809 18.2754 94.4556 18.1045 94.353 17.8994C94.2505 17.6829 94.1992 17.4209 94.1992 17.1133ZM96.9678 15.8828C96.9678 15.5524 96.9165 15.2562 96.814 14.9941C96.7228 14.7321 96.5975 14.5042 96.438 14.3105C96.0164 14.6751 95.6519 15.0853 95.3442 15.541C95.048 15.9854 94.8999 16.5094 94.8999 17.1133C94.8999 17.4323 94.9797 17.6829 95.1392 17.8652C95.2987 18.0361 95.4867 18.1216 95.7031 18.1216C95.9538 18.1216 96.1589 18.0418 96.3184 17.8823C96.4893 17.7228 96.6203 17.5291 96.7114 17.3013C96.8026 17.062 96.8652 16.8171 96.8994 16.5664C96.945 16.3044 96.9678 16.0765 96.9678 15.8828ZM105.051 25.7607C104.47 25.7607 103.912 25.6582 103.376 25.4531C102.841 25.248 102.368 24.9404 101.958 24.5303C101.559 24.1087 101.24 23.5846 101.001 22.958C100.762 22.3314 100.642 21.5965 100.642 20.7534C100.642 19.728 100.79 18.8166 101.086 18.019C101.383 17.2101 101.759 16.5322 102.214 15.9854C102.681 15.4271 103.2 15.0055 103.77 14.7207C104.339 14.4245 104.897 14.2764 105.444 14.2764C106.151 14.2764 106.709 14.5099 107.119 14.9771C107.541 15.4442 107.751 16.048 107.751 16.7886C107.751 17.4266 107.632 18.0076 107.393 18.5317C107.153 19.0444 106.834 19.4888 106.436 19.8647C106.048 20.2293 105.598 20.5142 105.085 20.7192C104.584 20.9243 104.06 21.0269 103.513 21.0269C103.251 21.0269 103 21.0155 102.761 20.9927C102.533 20.9585 102.328 20.9243 102.146 20.8901C102.214 21.5965 102.351 22.2061 102.556 22.7188C102.761 23.2314 103.018 23.653 103.325 23.9834C103.633 24.3138 103.975 24.5588 104.351 24.7183C104.738 24.8778 105.137 24.9575 105.547 24.9575C106.06 24.9575 106.532 24.8322 106.965 24.5815C107.398 24.3309 107.797 24.0062 108.162 23.6074C108.526 23.1973 108.857 22.7301 109.153 22.2061C109.46 21.682 109.734 21.1522 109.973 20.6167C110.212 20.0698 110.423 19.54 110.605 19.0273C110.799 18.5033 110.97 18.0418 111.118 17.6431L111.785 17.814C111.637 18.1899 111.46 18.6457 111.255 19.1812C111.061 19.7166 110.833 20.2806 110.571 20.873C110.309 21.4541 110.002 22.0409 109.648 22.6333C109.295 23.2144 108.896 23.7384 108.452 24.2056C108.008 24.6613 107.501 25.0373 106.931 25.3335C106.373 25.6183 105.746 25.7607 105.051 25.7607ZM105.479 14.9429C105.057 14.9429 104.641 15.0796 104.231 15.353C103.832 15.6151 103.473 15.9797 103.154 16.4468C102.835 16.9139 102.573 17.4665 102.368 18.1045C102.174 18.7425 102.078 19.4261 102.078 20.1553C102.226 20.2122 102.431 20.2635 102.693 20.3091C102.966 20.3433 103.297 20.3604 103.684 20.3604C104.094 20.3604 104.499 20.2749 104.897 20.104C105.308 19.9217 105.672 19.6768 105.991 19.3691C106.322 19.0501 106.584 18.6742 106.777 18.2412C106.982 17.8083 107.085 17.3354 107.085 16.8228C107.085 16.5721 107.051 16.3328 106.982 16.105C106.914 15.8771 106.812 15.6777 106.675 15.5068C106.538 15.3359 106.367 15.1992 106.162 15.0967C105.968 14.9941 105.741 14.9429 105.479 14.9429ZM111.118 17.6431C111.289 17.1987 111.471 16.7772 111.665 16.3784C111.87 15.9683 112.087 15.6094 112.314 15.3018C112.542 14.9941 112.787 14.7492 113.049 14.5669C113.323 14.3732 113.625 14.2764 113.955 14.2764C114.115 14.2764 114.297 14.3105 114.502 14.3789C114.707 14.4473 114.901 14.584 115.083 14.7891C115.277 14.9941 115.436 15.2904 115.562 15.6777C115.687 16.0651 115.75 16.5778 115.75 17.2158C115.75 17.5462 115.732 17.9108 115.698 18.3096C115.664 18.7083 115.63 19.1014 115.596 19.4888C115.949 18.7368 116.296 18.1045 116.638 17.5918C116.991 17.0677 117.333 16.6519 117.664 16.3442C118.005 16.0252 118.341 15.7974 118.672 15.6606C119.002 15.5125 119.333 15.4385 119.663 15.4385C119.811 15.4385 119.982 15.4727 120.176 15.541C120.381 15.6094 120.569 15.729 120.74 15.8999C120.922 16.0708 121.07 16.3044 121.184 16.6006C121.309 16.8968 121.372 17.2785 121.372 17.7456C121.372 18.1216 121.344 18.4976 121.287 18.8735C121.23 19.2495 121.167 19.6141 121.099 19.9673C121.03 20.3205 120.968 20.6566 120.911 20.9756C120.854 21.2832 120.825 21.5566 120.825 21.7959C120.825 22.3656 120.928 22.8042 121.133 23.1118C121.338 23.408 121.651 23.5562 122.073 23.5562C122.415 23.5562 122.739 23.4308 123.047 23.1802C123.354 22.9181 123.639 22.5877 123.901 22.189C124.175 21.7902 124.42 21.3516 124.636 20.873C124.864 20.3945 125.058 19.9388 125.217 19.5059C125.388 19.0615 125.531 18.6742 125.645 18.3438C125.758 18.002 125.838 17.7684 125.884 17.6431L126.55 17.814C126.391 18.2127 126.22 18.6571 126.038 19.147C125.867 19.6255 125.673 20.1097 125.457 20.5996C125.24 21.0895 125.007 21.568 124.756 22.0352C124.505 22.4909 124.226 22.8953 123.918 23.2485C123.611 23.6017 123.275 23.8866 122.91 24.103C122.557 24.3195 122.164 24.4277 121.731 24.4277C121.366 24.4277 121.047 24.3594 120.774 24.2227C120.512 24.0745 120.29 23.8809 120.107 23.6416C119.925 23.4023 119.788 23.1175 119.697 22.7871C119.606 22.4567 119.561 22.1035 119.561 21.7275C119.561 21.306 119.595 20.873 119.663 20.4287C119.743 19.9844 119.823 19.5571 119.902 19.147C119.993 18.7368 120.073 18.3608 120.142 18.019C120.221 17.6659 120.261 17.3753 120.261 17.1475C120.261 16.7943 120.193 16.5322 120.056 16.3613C119.919 16.179 119.731 16.0879 119.492 16.0879C119.162 16.0879 118.837 16.2075 118.518 16.4468C118.21 16.686 117.909 17.005 117.612 17.4038C117.327 17.8026 117.054 18.2583 116.792 18.771C116.53 19.2837 116.285 19.8135 116.057 20.3604C115.841 20.8958 115.636 21.4313 115.442 21.9668C115.26 22.5023 115.1 22.9865 114.963 23.4194C114.827 23.8524 114.707 24.2227 114.604 24.5303C114.513 24.8265 114.451 25.0145 114.417 25.0942L113.425 24.9233C113.562 24.2511 113.687 23.5448 113.801 22.8042C113.915 22.0522 114.012 21.3174 114.092 20.5996C114.183 19.8704 114.251 19.1755 114.297 18.5146C114.354 17.8538 114.382 17.2671 114.382 16.7544C114.382 16.0594 114.337 15.5923 114.246 15.353C114.154 15.1024 113.989 14.9771 113.75 14.9771C113.545 14.9771 113.351 15.0568 113.169 15.2163C112.987 15.3644 112.816 15.5695 112.656 15.8315C112.508 16.0822 112.36 16.3784 112.212 16.7202C112.064 17.062 111.921 17.4266 111.785 17.814L111.118 17.6431ZM129.626 25.7607C129.045 25.7607 128.487 25.6582 127.952 25.4531C127.416 25.248 126.943 24.9404 126.533 24.5303C126.134 24.1087 125.815 23.5846 125.576 22.958C125.337 22.3314 125.217 21.5965 125.217 20.7534C125.217 19.728 125.365 18.8166 125.662 18.019C125.958 17.2101 126.334 16.5322 126.79 15.9854C127.257 15.4271 127.775 15.0055 128.345 14.7207C128.914 14.4245 129.473 14.2764 130.02 14.2764C130.726 14.2764 131.284 14.5099 131.694 14.9771C132.116 15.4442 132.327 16.048 132.327 16.7886C132.327 17.4266 132.207 18.0076 131.968 18.5317C131.729 19.0444 131.41 19.4888 131.011 19.8647C130.623 20.2293 130.173 20.5142 129.661 20.7192C129.159 20.9243 128.635 21.0269 128.088 21.0269C127.826 21.0269 127.576 21.0155 127.336 20.9927C127.109 20.9585 126.903 20.9243 126.721 20.8901C126.79 21.5965 126.926 22.2061 127.131 22.7188C127.336 23.2314 127.593 23.653 127.9 23.9834C128.208 24.3138 128.55 24.5588 128.926 24.7183C129.313 24.8778 129.712 24.9575 130.122 24.9575C130.635 24.9575 131.108 24.8322 131.541 24.5815C131.973 24.3309 132.372 24.0062 132.737 23.6074C133.101 23.1973 133.432 22.7301 133.728 22.2061C134.036 21.682 134.309 21.1522 134.548 20.6167C134.788 20.0698 134.998 19.54 135.181 19.0273C135.374 18.5033 135.545 18.0418 135.693 17.6431L136.36 17.814C136.212 18.1899 136.035 18.6457 135.83 19.1812C135.636 19.7166 135.409 20.2806 135.146 20.873C134.884 21.4541 134.577 22.0409 134.224 22.6333C133.87 23.2144 133.472 23.7384 133.027 24.2056C132.583 24.6613 132.076 25.0373 131.506 25.3335C130.948 25.6183 130.321 25.7607 129.626 25.7607ZM130.054 14.9429C129.632 14.9429 129.216 15.0796 128.806 15.353C128.407 15.6151 128.049 15.9797 127.729 16.4468C127.41 16.9139 127.148 17.4665 126.943 18.1045C126.75 18.7425 126.653 19.4261 126.653 20.1553C126.801 20.2122 127.006 20.2635 127.268 20.3091C127.542 20.3433 127.872 20.3604 128.259 20.3604C128.669 20.3604 129.074 20.2749 129.473 20.104C129.883 19.9217 130.247 19.6768 130.566 19.3691C130.897 19.0501 131.159 18.6742 131.353 18.2412C131.558 17.8083 131.66 17.3354 131.66 16.8228C131.66 16.5721 131.626 16.3328 131.558 16.105C131.489 15.8771 131.387 15.6777 131.25 15.5068C131.113 15.3359 130.942 15.1992 130.737 15.0967C130.544 14.9941 130.316 14.9429 130.054 14.9429Z" fill="white"/>
</svg>
